<?xml version="1.0" encoding="utf-8"?>
<!-- Generator: Adobe Illustrator 19.0.0, SVG Export Plug-In . SVG Version: 6.00 Build 0)  -->
<svg version="1.1" id="Capa_1" xmlns="http://www.w3.org/2000/svg" xmlns:xlink="http://www.w3.org/1999/xlink" x="0px" y="0px"
	 viewBox="-389 502.5 461.5 461.5" style="enable-background:new -389 502.5 461.5 461.5;" xml:space="preserve">
<style type="text/css">
	.st0{fill:#3B3B3F;}
</style>
<g>
	<g id="volume-off">
		<path class="st0" d="M-43.5,732c0-45.9-25.5-84.1-63.8-102v56.1l63.8,63.8C-43.5,742.2-43.5,737.1-43.5,732z M20.3,732
			c0,23-5.1,45.9-12.8,66.3l38.3,38.3c17.9-30.6,25.5-68.8,25.5-107.1C71.3,619.8-5.2,528-107.2,505v53.5
			C-33.3,584,20.3,650.3,20.3,732z M-354.6,502.5l-33.1,33.2l119.9,119.8h-119.9v153h102L-158.2,936V765.1l109.6,109.7
			c-17.9,12.8-35.7,23-58.6,30.6v53.5c35.7-7.7,66.3-23,94.4-45.9l51,51l33.1-33.1l-229.5-229.5L-354.6,502.5z M-158.2,528
			l-53.6,53.5l53.6,53.6V528z"/>
	</g>
</g>
</svg>
