<?xml version="1.0" encoding="utf-8"?>
<!-- Generator: Adobe Illustrator 19.0.0, SVG Export Plug-In . SVG Version: 6.00 Build 0)  -->
<svg version="1.1" id="Capa_1" xmlns="http://www.w3.org/2000/svg" xmlns:xlink="http://www.w3.org/1999/xlink" x="0px" y="0px"
	 viewBox="-414 535.4 412 395.6" style="enable-background:new -414 535.4 412 395.6;" xml:space="preserve">
<style type="text/css">
	.st0{fill:#3B3B3F;}
</style>
<g id="XMLID_43_">
	<polygon id="XMLID_45_" class="st0" points="-772.6,1426.3 -407.6,1076.8 -371.4,1111.5 -736.4,1461 	"/>
	<polygon id="XMLID_46_" class="st0" points="-407.6,1461 -772.6,1111.5 -736.4,1076.8 -371.4,1426.3 	"/>
</g>
<g>
	<path class="st0" d="M-341.1,674.3c22.2-51.7,73.9-88.7,133.1-88.7c73.9,0,133.1,54.2,145.4,123.2h49.3
		C-25.7,612.7-107,536.3-208,536.3c-73.9,0-138,39.4-170,101l-27.1-27.1v98.6h98.6L-341.1,674.3L-341.1,674.3z"/>
	<path class="st0" d="M-10.9,758h-101l37,34.5c-22.2,51.7-73.9,88.7-135.5,88.7c-71.5,0-133.1-54.2-145.4-123.2h-49.3
		c12.3,96.1,96.1,172.5,194.7,172.5c73.9,0,138-41.9,172.5-101l27.1,27.1V758z"/>
</g>
</svg>
